<svg width="50" height="50" viewBox="0 0 50 50" fill="none" xmlns="http://www.w3.org/2000/svg">
<circle cx="25" cy="25" r="25" fill="#F8C7BC"/>
<path d="M16.2498 16.3606C14.6781 17.9931 14.9998 19.7273 14.9998 24.9956C14.9998 29.3706 14.2364 33.7564 18.2314 34.7889C19.4789 35.1098 30.5323 35.1098 31.7781 34.7873C33.4414 34.3581 34.7948 33.0089 34.9798 30.6564C35.0056 30.3281 35.0056 19.6689 34.9789 19.3339C34.7823 16.8281 33.2398 15.3839 31.2073 15.0914C30.7414 15.0239 30.6481 15.0039 28.2581 14.9998C19.7806 15.0039 17.9223 14.6264 16.2498 16.3606Z" fill="#F4512D"/>
<path d="M24.9979 17.6155C21.972 17.6155 19.0987 17.3464 18.0012 20.163C17.5479 21.3264 17.6137 22.8372 17.6137 25.0005C17.6137 26.8989 17.5529 28.683 18.0012 29.8372C19.0962 32.6555 21.9929 32.3855 24.9962 32.3855C27.8937 32.3855 30.8812 32.6872 31.992 29.8372C32.4462 28.6622 32.3795 27.1739 32.3795 25.0005C32.3795 22.1155 32.5387 20.253 31.1395 18.8547C29.7229 17.438 27.807 17.6155 24.9945 17.6155H24.9979ZM24.3362 18.9464C30.6479 18.9364 31.4512 18.2347 31.0079 27.9822C30.8504 31.4297 28.2254 31.0514 24.9987 31.0514C19.1154 31.0514 18.9462 30.883 18.9462 24.9972C18.9462 19.043 19.4129 18.9497 24.3362 18.9447V18.9464ZM28.9395 20.1722C28.4504 20.1722 28.0537 20.5689 28.0537 21.058C28.0537 21.5472 28.4504 21.9439 28.9395 21.9439C29.4287 21.9439 29.8254 21.5472 29.8254 21.058C29.8254 20.5689 29.4287 20.1722 28.9395 20.1722ZM24.9979 21.208C22.9037 21.208 21.2062 22.9064 21.2062 25.0005C21.2062 27.0947 22.9037 28.7922 24.9979 28.7922C27.092 28.7922 28.7887 27.0947 28.7887 25.0005C28.7887 22.9064 27.092 21.208 24.9979 21.208ZM24.9979 22.5389C28.252 22.5389 28.2562 27.4622 24.9979 27.4622C21.7445 27.4622 21.7395 22.5389 24.9979 22.5389Z" fill="white"/>
</svg>
