<svg width="50" height="50" viewBox="0 0 50 50" fill="none" xmlns="http://www.w3.org/2000/svg">
<circle cx="25" cy="25" r="25" fill="#F8C7BC"/>
<path d="M25 35C30.5228 35 35 30.5228 35 25C35 19.4772 30.5228 15 25 15C19.4772 15 15 19.4772 15 25C15 30.5228 19.4772 35 25 35Z" fill="#F4512D"/>
<path d="M19.5756 24.7833L29.2172 21.0658C29.6647 20.9041 30.0556 21.1749 29.9106 21.8516L29.9114 21.8508L28.2697 29.5849C28.1481 30.1333 27.8222 30.2666 27.3664 30.0083L24.8664 28.1658L23.6606 29.3274C23.5272 29.4608 23.4147 29.5733 23.1564 29.5733L23.3339 27.0291L27.9672 22.8433C28.1689 22.6658 27.9222 22.5658 27.6564 22.7424L21.9306 26.3474L19.4622 25.5774C18.9264 25.4074 18.9147 25.0416 19.5756 24.7833Z" fill="white"/>
</svg>
