<svg width="50" height="50" viewBox="0 0 50 50" fill="none" xmlns="http://www.w3.org/2000/svg">
<circle cx="25" cy="25" r="25" fill="#F8C7BC"/>
<rect x="18" y="17" width="13" height="13" fill="white"/>
<path d="M33.6918 19.6547C33.3339 18.378 32.626 17.3674 31.5874 16.6525C30.2766 15.7495 28.769 15.4292 27.4669 15.235C25.6653 14.9664 24.0334 14.9287 22.4794 15.1186C21.0216 15.2971 19.9243 15.5824 18.9224 16.0426C16.9597 16.9439 15.782 18.4034 15.4223 20.3792C15.2473 21.3382 15.1301 22.2054 15.0618 23.0323C14.9043 24.9442 15.047 26.6364 15.4985 28.2045C15.9377 29.7331 16.706 30.826 17.847 31.5435C18.1384 31.7264 18.5094 31.8585 18.8699 31.9863C19.0502 32.0502 19.2234 32.1132 19.3748 32.1797V35.2685C19.3748 35.6727 19.702 36 20.1063 36C20.2971 36 20.4799 35.9256 20.6164 35.7926L23.4664 33.0206C23.5906 32.8788 23.5906 32.8788 23.7184 32.8762C24.6923 32.8569 25.6872 32.8193 26.6759 32.7659C27.8738 32.7003 29.2616 32.5848 30.5689 32.0397C31.765 31.54 32.6383 30.7473 33.1624 29.6841C33.7093 28.5746 34.0348 27.3723 34.1564 26.0099C34.37 23.6141 34.2177 21.5351 33.6918 19.6547ZM28.7296 28.7724C28.4435 29.2405 28.0147 29.5643 27.5107 29.7743C27.1423 29.9283 26.7661 29.8959 26.4029 29.7419C23.3544 28.4521 20.9647 26.4186 19.3844 23.4969C19.0589 22.8949 18.8323 22.2395 18.5724 21.6034C18.519 21.4721 18.5234 21.319 18.4998 21.1763C18.5225 20.1482 19.3109 19.5698 20.1072 19.3948C20.4117 19.3274 20.6812 19.4351 20.9069 19.6512C21.5317 20.248 22.0261 20.9392 22.398 21.7145C22.5607 22.0549 22.4872 22.3559 22.2098 22.6087C22.153 22.6612 22.0926 22.7102 22.0305 22.7566C21.3978 23.2326 21.3051 23.5923 21.642 24.3089C22.216 25.5278 23.1689 26.3459 24.4018 26.8535C24.7264 26.9873 25.0326 26.9208 25.2812 26.6574C25.3144 26.6224 25.352 26.5883 25.3765 26.5481C25.863 25.7369 26.5674 25.8174 27.2184 26.2803C27.6463 26.5839 28.0611 26.9042 28.4846 27.214C29.1269 27.6873 29.1216 28.1319 28.7296 28.7724ZM25.072 20.3748C24.9084 20.3748 24.7439 20.388 24.5829 20.4151C24.3099 20.4615 24.0526 20.2768 24.0071 20.0038C23.9616 19.7317 24.1454 19.4736 24.4184 19.4281C24.6328 19.3931 24.8533 19.3747 25.072 19.3747C27.2377 19.3747 29 21.137 29 23.3026C29 23.5223 28.9816 23.7428 28.9457 23.9571C28.9046 24.2013 28.6928 24.3745 28.4531 24.3745C28.426 24.3745 28.398 24.3728 28.37 24.3675C28.0978 24.3212 27.9141 24.0639 27.9596 23.7918C27.9867 23.6325 27.9998 23.468 27.9998 23.3035C27.9998 21.6882 26.6864 20.3748 25.072 20.3748ZM27.2499 23.6246C27.2499 23.9003 27.0259 24.1243 26.7503 24.1243C26.4747 24.1243 26.2507 23.9003 26.2507 23.6246C26.2507 22.7977 25.5778 22.1249 24.7509 22.1249C24.4753 22.1249 24.2513 21.9009 24.2513 21.6252C24.2513 21.3496 24.4753 21.1256 24.7509 21.1256C26.1282 21.1247 27.2499 22.2465 27.2499 23.6246ZM30.6153 24.2345C30.5628 24.4673 30.3571 24.6239 30.1279 24.6239C30.0911 24.6239 30.0535 24.6195 30.0167 24.6117C29.7472 24.5504 29.5784 24.2827 29.6396 24.014C29.7122 23.6946 29.749 23.3648 29.749 23.034C29.749 20.6032 27.7715 18.6248 25.3398 18.6248C25.0081 18.6248 24.6791 18.6615 24.3598 18.7342C24.092 18.7963 23.8225 18.6265 23.7621 18.357C23.7009 18.0875 23.8698 17.8198 24.1393 17.7594C24.5313 17.6693 24.9355 17.6247 25.3415 17.6247C28.3236 17.6247 30.75 20.0511 30.75 23.0331C30.75 23.4391 30.7045 23.8434 30.6153 24.2345Z" fill="#F4512D"/>
</svg>
