<svg width="50" height="50" viewBox="0 0 50 50" fill="none" xmlns="http://www.w3.org/2000/svg">
<circle cx="25" cy="25" r="25" fill="#F8C7BC"/>
<path d="M32.1 17.8742C30.2 16.0375 27.7 15 25.0375 15C17.3958 15 12.5975 23.2792 16.4133 29.865L15 35L20.2792 33.6233C22.5792 34.8658 24.4633 34.7558 25.0425 34.8292C33.9033 34.8292 38.3142 24.1092 32.0875 17.9067L32.1 17.8742Z" fill="#F4512D"/>
<path d="M25.0562 33.1258L25.0512 33.1249H25.0379C22.3862 33.1249 20.6921 31.8691 20.5254 31.7966L17.4004 32.6091L18.2379 29.5716L18.0387 29.2591C17.2137 27.9458 16.7754 26.4333 16.7754 24.8758C16.7754 17.5483 25.7296 13.8841 30.9112 19.0633C36.0804 24.1883 32.4512 33.1258 25.0562 33.1258Z" fill="#F4512D"/>
<path d="M29.5893 26.9226L29.5818 26.9851C29.3309 26.8601 28.1093 26.2626 27.8818 26.1801C27.3709 25.9909 27.5151 26.1501 26.5343 27.2734C26.3884 27.4359 26.2434 27.4484 25.9959 27.3359C25.7459 27.2109 24.9434 26.9484 23.9934 26.0984C23.2534 25.4359 22.7568 24.6234 22.6101 24.3734C22.3659 23.9517 22.8768 23.8917 23.3418 23.0117C23.4251 22.8367 23.3826 22.6992 23.3209 22.5751C23.2584 22.4501 22.7609 21.2251 22.5526 20.7367C22.3526 20.2501 22.1468 20.3117 21.9926 20.3117C21.5126 20.2701 21.1618 20.2767 20.8526 20.5984C19.5076 22.0767 19.8468 23.6017 20.9976 25.2234C23.2593 28.1834 24.4643 28.7284 26.6676 29.4851C27.2626 29.6742 27.8051 29.6476 28.2343 29.5859C28.7126 29.5101 29.7068 28.9851 29.9143 28.3976C30.1268 27.8101 30.1268 27.3226 30.0643 27.2101C30.0026 27.0976 29.8393 27.0351 29.5893 26.9226Z" fill="#FAFAFA"/>
</svg>
