<svg width="127" height="85" viewBox="0 0 127 85" fill="none" xmlns="http://www.w3.org/2000/svg">
<path d="M2.24 81.256C1.664 81.256 1.2 81.1333 0.848 80.888C0.506667 80.6427 0.336 80.2907 0.336 79.832C0.336 79.4587 0.437333 79.1333 0.64 78.856C0.853333 78.568 1.18933 78.424 1.648 78.424C2.02133 78.424 2.29333 78.5253 2.464 78.728C2.63467 78.9307 2.72 79.176 2.72 79.464C2.72 79.6453 2.67733 79.7947 2.592 79.912C2.64533 79.944 2.72533 79.96 2.832 79.96C3.024 79.96 3.264 79.72 3.552 79.24C3.84 78.76 4.10133 77.9973 4.336 76.952C4.57067 75.9067 4.70933 74.536 4.752 72.84L4.8 70.984L4.4 71L2.96 71.032V69.8H11.792V70.856C11.5573 70.8667 11.3547 70.8987 11.184 70.952C11.0133 71.0053 10.88 71.128 10.784 71.32C10.6987 71.5013 10.656 71.8107 10.656 72.248V78.376C10.656 78.664 10.6507 78.9413 10.64 79.208C10.6293 79.4747 10.6133 79.6773 10.592 79.816C10.7733 79.7947 10.992 79.784 11.248 79.784C11.504 79.7733 11.6853 79.768 11.792 79.768V81H7.2V79.944C7.44533 79.9333 7.648 79.9013 7.808 79.848C7.97867 79.7947 8.10667 79.672 8.192 79.48C8.288 79.288 8.336 78.9787 8.336 78.552V71L7.056 71.048C6.69333 71.0587 6.42667 71.1333 6.256 71.272C6.08533 71.4 5.99467 71.64 5.984 71.992C5.952 73.72 5.824 75.176 5.6 76.36C5.38667 77.544 5.104 78.4987 4.752 79.224C4.41067 79.9387 4.02133 80.456 3.584 80.776C3.15733 81.096 2.70933 81.256 2.24 81.256ZM17.2379 74.04C16.8005 74.04 16.5339 74.1733 16.4379 74.44C16.3419 74.696 16.2939 75.0373 16.2939 75.464V77.512L19.2379 74.696C19.2485 74.504 19.2592 74.328 19.2699 74.168C19.0992 74.1787 18.9125 74.1893 18.7099 74.2C18.5072 74.2107 18.3472 74.216 18.2299 74.216V73H22.4219V74.04C21.9845 74.04 21.7179 74.1733 21.6219 74.44C21.5259 74.696 21.4779 75.0373 21.4779 75.464V78.424C21.4779 78.5733 21.4725 78.7867 21.4619 79.064C21.4512 79.3307 21.4352 79.5867 21.4139 79.832C21.5845 79.8107 21.7712 79.8 21.9739 79.8C22.1872 79.7893 22.3472 79.784 22.4539 79.784V81H18.2619V79.96C18.6992 79.96 18.9659 79.832 19.0619 79.576C19.1579 79.3093 19.2059 78.9627 19.2059 78.536V76.264L16.2779 79.08C16.2779 79.208 16.2725 79.336 16.2619 79.464C16.2512 79.592 16.2405 79.7147 16.2299 79.832C16.4005 79.8107 16.5872 79.8 16.7899 79.8C17.0032 79.7893 17.1632 79.784 17.2699 79.784V81H13.0779V79.96C13.5152 79.96 13.7819 79.832 13.8779 79.576C13.9739 79.3093 14.0219 78.9627 14.0219 78.536V75.576C14.0219 75.4267 14.0272 75.2133 14.0379 74.936C14.0485 74.6587 14.0645 74.4027 14.0859 74.168C13.9152 74.1787 13.7285 74.1893 13.5259 74.2C13.3232 74.2107 13.1632 74.216 13.0459 74.216V73H17.2379V74.04ZM27.3851 81.256C26.6705 81.256 26.0145 81.096 25.4171 80.776C24.8198 80.456 24.3398 79.992 23.9771 79.384C23.6251 78.776 23.4491 78.04 23.4491 77.176C23.4491 76.3653 23.6251 75.6293 23.9771 74.968C24.3291 74.296 24.8145 73.7573 25.4331 73.352C26.0625 72.9467 26.7878 72.744 27.6091 72.744C28.2918 72.744 28.8571 72.8507 29.3051 73.064C29.7638 73.2667 30.1051 73.5387 30.3291 73.88C30.5638 74.2107 30.6811 74.5627 30.6811 74.936C30.6811 75.2453 30.5851 75.5227 30.3931 75.768C30.2118 76.0027 29.9505 76.1253 29.6091 76.136C29.2038 76.1467 28.9211 76.0347 28.7611 75.8C28.6011 75.5547 28.5211 75.32 28.5211 75.096C28.5211 75 28.5371 74.888 28.5691 74.76C28.6011 74.6213 28.6491 74.4987 28.7131 74.392C28.5958 74.1573 28.4091 74.008 28.1531 73.944C27.8971 73.88 27.6945 73.8533 27.5451 73.864C27.0331 73.896 26.6118 74.152 26.2811 74.632C25.9505 75.112 25.7851 75.8053 25.7851 76.712C25.7851 77.2453 25.8491 77.7467 25.9771 78.216C26.1158 78.6747 26.3398 79.0533 26.6491 79.352C26.9585 79.6507 27.3745 79.8107 27.8971 79.832C28.3451 79.8427 28.7825 79.736 29.2091 79.512C29.6358 79.288 29.9985 78.984 30.2971 78.6L31.0331 79.32C30.6491 79.8533 30.2491 80.2587 29.8331 80.536C29.4171 80.8133 29.0011 81 28.5851 81.096C28.1798 81.2027 27.7798 81.256 27.3851 81.256ZM33.3304 81V79.96C33.7784 79.96 34.0504 79.832 34.1464 79.576C34.2424 79.3093 34.2904 78.9627 34.2904 78.536V75.576C34.2904 75.4267 34.2957 75.2293 34.3064 74.984C34.317 74.728 34.3277 74.4827 34.3384 74.248H33.9384C33.4584 74.248 33.101 74.3707 32.8664 74.616C32.6317 74.8507 32.5144 75.2827 32.5144 75.912H31.4744L31.5384 73H39.2984L39.3624 75.912H38.3224C38.3224 75.2827 38.205 74.8507 37.9704 74.616C37.7357 74.3707 37.3784 74.248 36.8984 74.248H36.5464V78.424C36.5464 78.5733 36.541 78.7867 36.5304 79.064C36.5197 79.3307 36.5037 79.5867 36.4824 79.832L37.5224 79.784V81H33.3304ZM44.7134 81C44.692 80.8507 44.676 80.728 44.6654 80.632C44.6654 80.5253 44.66 80.4027 44.6494 80.264C44.2867 80.6267 43.9027 80.8827 43.4974 81.032C43.092 81.1813 42.6814 81.256 42.2654 81.256C41.5827 81.256 41.0494 81.0533 40.6654 80.648C40.2814 80.2427 40.0894 79.736 40.0894 79.128C40.0894 78.616 40.2174 78.1787 40.4734 77.816C40.74 77.4533 41.0867 77.16 41.5134 76.936C41.9507 76.7013 42.4307 76.5253 42.9534 76.408C43.4867 76.28 44.02 76.2053 44.5534 76.184V75.352C44.5534 74.936 44.468 74.584 44.2974 74.296C44.1374 74.008 43.8387 73.8747 43.4014 73.896C42.9534 73.9173 42.5907 74.0667 42.3134 74.344C42.3987 74.44 42.452 74.5467 42.4734 74.664C42.4947 74.7707 42.5054 74.8667 42.5054 74.952C42.5054 75.1653 42.42 75.3893 42.2494 75.624C42.0787 75.848 41.8067 75.9547 41.4334 75.944C41.1134 75.9333 40.868 75.8213 40.6974 75.608C40.5267 75.3947 40.4414 75.144 40.4414 74.856C40.4414 74.4293 40.5907 74.0613 40.8894 73.752C41.1987 73.432 41.6094 73.1867 42.1214 73.016C42.6334 72.8347 43.1987 72.744 43.8174 72.744C44.756 72.744 45.4814 72.9893 45.9934 73.48C46.516 73.96 46.7774 74.7333 46.7774 75.8C46.7774 76.1627 46.7774 76.472 46.7774 76.728C46.7774 76.984 46.772 77.24 46.7614 77.496C46.7614 77.752 46.7614 78.0613 46.7614 78.424C46.7614 78.5733 46.756 78.7867 46.7454 79.064C46.7347 79.3307 46.7187 79.5867 46.6974 79.832C46.8787 79.8107 47.0707 79.8 47.2734 79.8C47.476 79.7893 47.6307 79.784 47.7374 79.784V81H44.7134ZM44.5374 77.32C43.94 77.3733 43.4227 77.528 42.9854 77.784C42.5587 78.04 42.3507 78.3973 42.3614 78.856C42.372 79.1547 42.468 79.368 42.6494 79.496C42.8307 79.624 43.0387 79.688 43.2734 79.688C43.5187 79.688 43.748 79.6347 43.9614 79.528C44.1747 79.4213 44.3667 79.2827 44.5374 79.112V77.32ZM52.816 74.04C52.3787 74.04 52.112 74.1733 52.016 74.44C51.92 74.696 51.872 75.0373 51.872 75.464V77.512L54.816 74.696C54.8267 74.504 54.8373 74.328 54.848 74.168C54.6773 74.1787 54.4907 74.1893 54.288 74.2C54.0853 74.2107 53.9253 74.216 53.808 74.216V73H58V74.04C57.5627 74.04 57.296 74.1733 57.2 74.44C57.104 74.696 57.056 75.0373 57.056 75.464V78.424C57.056 78.5733 57.0507 78.7867 57.04 79.064C57.0293 79.3307 57.0133 79.5867 56.992 79.832C57.1627 79.8107 57.3493 79.8 57.552 79.8C57.7653 79.7893 57.9253 79.784 58.032 79.784V81H53.84V79.96C54.2773 79.96 54.544 79.832 54.64 79.576C54.736 79.3093 54.784 78.9627 54.784 78.536V76.264L51.856 79.08C51.856 79.208 51.8507 79.336 51.84 79.464C51.8293 79.592 51.8187 79.7147 51.808 79.832C51.9787 79.8107 52.1653 79.8 52.368 79.8C52.5813 79.7893 52.7413 79.784 52.848 79.784V81H48.656V79.96C49.0933 79.96 49.36 79.832 49.456 79.576C49.552 79.3093 49.6 78.9627 49.6 78.536V75.576C49.6 75.4267 49.6053 75.2133 49.616 74.936C49.6267 74.6587 49.6427 74.4027 49.664 74.168C49.4933 74.1787 49.3067 74.1893 49.104 74.2C48.9013 74.2107 48.7413 74.216 48.624 74.216V73H52.816V74.04ZM53.264 71.72C52.5173 71.72 51.904 71.5707 51.424 71.272C50.9547 70.9733 50.72 70.552 50.72 70.008C50.72 69.72 50.7947 69.4853 50.944 69.304C51.0933 69.112 51.3173 69.0213 51.616 69.032C51.872 69.032 52.064 69.096 52.192 69.224C52.3307 69.3413 52.4267 69.4747 52.48 69.624C52.5333 69.7733 52.56 69.8907 52.56 69.976C52.5493 70.072 52.528 70.1733 52.496 70.28C52.4747 70.376 52.432 70.4827 52.368 70.6C52.5173 70.728 52.656 70.8187 52.784 70.872C52.9227 70.9147 53.0827 70.936 53.264 70.936C53.4453 70.936 53.6053 70.9147 53.744 70.872C53.8827 70.8187 54.0213 70.728 54.16 70.6C54.096 70.4827 54.048 70.376 54.016 70.28C53.9947 70.1733 53.9787 70.072 53.968 69.976C53.968 69.8907 53.9893 69.7733 54.032 69.624C54.0853 69.4747 54.1813 69.3413 54.32 69.224C54.4587 69.096 54.6507 69.032 54.896 69.032C55.2053 69.0213 55.4347 69.112 55.584 69.304C55.7333 69.4853 55.808 69.72 55.808 70.008C55.808 70.552 55.568 70.9733 55.088 71.272C54.6187 71.5707 54.0107 71.72 53.264 71.72ZM60.6273 81V79.96C61.0753 79.96 61.3473 79.832 61.4433 79.576C61.5393 79.3093 61.5873 78.9627 61.5873 78.536V75.576C61.5873 75.4267 61.5926 75.2293 61.6033 74.984C61.6139 74.728 61.6246 74.4827 61.6353 74.248H61.2353C60.7553 74.248 60.3979 74.3707 60.1633 74.616C59.9286 74.8507 59.8113 75.2827 59.8113 75.912H58.7713L58.8353 73H66.5953L66.6593 75.912H65.6193C65.6193 75.2827 65.5019 74.8507 65.2673 74.616C65.0326 74.3707 64.6753 74.248 64.1953 74.248H63.8433V78.424C63.8433 78.5733 63.8379 78.7867 63.8273 79.064C63.8166 79.3307 63.8006 79.5867 63.7793 79.832L64.8193 79.784V81H60.6273ZM71.3543 81.256C70.5756 81.256 69.8876 81.0853 69.2903 80.744C68.6929 80.392 68.2289 79.9013 67.8983 79.272C67.5676 78.632 67.4023 77.88 67.4023 77.016C67.4023 76.2693 67.5676 75.5707 67.8983 74.92C68.2289 74.2693 68.6929 73.7467 69.2903 73.352C69.8983 72.9467 70.6023 72.744 71.4023 72.744C71.8503 72.744 72.2876 72.808 72.7143 72.936C73.1409 73.0533 73.5249 73.2613 73.8663 73.56C74.2183 73.8587 74.4956 74.264 74.6983 74.776C74.9116 75.288 75.0129 75.928 75.0023 76.696L69.7543 76.792C69.7543 77.368 69.8236 77.8853 69.9623 78.344C70.1116 78.8027 70.3516 79.1653 70.6823 79.432C71.0129 79.6987 71.4556 79.832 72.0103 79.832C72.3303 79.832 72.7089 79.7467 73.1463 79.576C73.5943 79.3947 73.9996 79.08 74.3623 78.632L75.0823 79.304C74.6983 79.848 74.2876 80.264 73.8503 80.552C73.4129 80.8293 72.9756 81.016 72.5383 81.112C72.1116 81.208 71.7169 81.256 71.3543 81.256ZM69.8503 75.672H72.7943C72.7836 75.0107 72.6556 74.5467 72.4103 74.28C72.1649 74.0027 71.8556 73.864 71.4823 73.864C71.0129 73.864 70.6449 74.0347 70.3783 74.376C70.1116 74.7067 69.9356 75.1387 69.8503 75.672ZM80.0708 83.928V79.752H80.8868C81.1321 79.752 81.3454 79.6773 81.5268 79.528C81.7188 79.368 81.8841 79.1547 82.0228 78.888C82.1401 78.6427 82.2468 78.3227 82.3428 77.928C82.4494 77.5333 82.5401 77.1067 82.6148 76.648C82.7001 76.1893 82.7694 75.736 82.8228 75.288C82.8761 74.84 82.9134 74.44 82.9348 74.088L81.4148 74.216V73H89.3508V74.04C88.9028 74.04 88.6308 74.1733 88.5347 74.44C88.4388 74.696 88.3908 75.0373 88.3908 75.464V78.424C88.3908 78.5733 88.3854 78.7813 88.3748 79.048C88.3641 79.3147 88.3481 79.5707 88.3268 79.816L89.9908 79.752V83.928H88.9348C88.9561 83.0853 88.8708 82.3867 88.6788 81.832C88.4974 81.2773 88.1934 81 87.7668 81H82.2788C81.8628 81 81.5588 81.2773 81.3668 81.832C81.1854 82.3867 81.1001 83.0853 81.1108 83.928H80.0708ZM82.7268 79.752H85.1748C85.6121 79.752 85.8788 79.624 85.9748 79.368C86.0708 79.1013 86.1188 78.7547 86.1188 78.328V75.56C86.1188 75.4107 86.1241 75.2133 86.1348 74.968C86.1454 74.712 86.1614 74.472 86.1828 74.248H84.9188C84.6628 74.248 84.4654 74.296 84.3268 74.392C84.1988 74.4773 84.1134 74.6533 84.0708 74.92C83.9854 75.5707 83.9054 76.1253 83.8307 76.584C83.7668 77.0427 83.6921 77.4427 83.6068 77.784C83.5214 78.1253 83.4201 78.44 83.3028 78.728C83.2281 78.8987 83.1428 79.0693 83.0468 79.24C82.9508 79.4 82.8441 79.5707 82.7268 79.752ZM95.5103 81C95.4889 80.8507 95.4729 80.728 95.4623 80.632C95.4623 80.5253 95.4569 80.4027 95.4463 80.264C95.0836 80.6267 94.6996 80.8827 94.2943 81.032C93.8889 81.1813 93.4783 81.256 93.0623 81.256C92.3796 81.256 91.8463 81.0533 91.4622 80.648C91.0783 80.2427 90.8863 79.736 90.8863 79.128C90.8863 78.616 91.0143 78.1787 91.2703 77.816C91.5369 77.4533 91.8836 77.16 92.3103 76.936C92.7476 76.7013 93.2276 76.5253 93.7503 76.408C94.2836 76.28 94.8169 76.2053 95.3503 76.184V75.352C95.3503 74.936 95.2649 74.584 95.0943 74.296C94.9343 74.008 94.6356 73.8747 94.1983 73.896C93.7503 73.9173 93.3876 74.0667 93.1103 74.344C93.1956 74.44 93.2489 74.5467 93.2703 74.664C93.2916 74.7707 93.3023 74.8667 93.3023 74.952C93.3023 75.1653 93.2169 75.3893 93.0463 75.624C92.8756 75.848 92.6036 75.9547 92.2303 75.944C91.9103 75.9333 91.6649 75.8213 91.4943 75.608C91.3236 75.3947 91.2383 75.144 91.2383 74.856C91.2383 74.4293 91.3876 74.0613 91.6863 73.752C91.9956 73.432 92.4063 73.1867 92.9183 73.016C93.4303 72.8347 93.9956 72.744 94.6143 72.744C95.5529 72.744 96.2783 72.9893 96.7903 73.48C97.3129 73.96 97.5743 74.7333 97.5743 75.8C97.5743 76.1627 97.5743 76.472 97.5743 76.728C97.5743 76.984 97.5689 77.24 97.5583 77.496C97.5583 77.752 97.5583 78.0613 97.5583 78.424C97.5583 78.5733 97.5529 78.7867 97.5423 79.064C97.5316 79.3307 97.5156 79.5867 97.4943 79.832C97.6756 79.8107 97.8676 79.8 98.0703 79.8C98.2729 79.7893 98.4276 79.784 98.5343 79.784V81H95.5103ZM95.3343 77.32C94.7369 77.3733 94.2196 77.528 93.7823 77.784C93.3556 78.04 93.1476 78.3973 93.1583 78.856C93.1689 79.1547 93.2649 79.368 93.4463 79.496C93.6276 79.624 93.8356 79.688 94.0703 79.688C94.3156 79.688 94.5449 79.6347 94.7583 79.528C94.9716 79.4213 95.1636 79.2827 95.3343 79.112V77.32ZM100.573 81.224C100.082 81.224 99.6769 81.0907 99.3569 80.824C99.0369 80.5573 98.8769 80.2107 98.8769 79.784C98.8769 79.432 98.9782 79.1653 99.1809 78.984C99.3835 78.792 99.6502 78.696 99.9809 78.696C100.322 78.696 100.562 78.7867 100.701 78.968C100.85 79.1493 100.925 79.3467 100.925 79.56C100.925 79.6987 100.909 79.8053 100.877 79.88C100.845 79.944 100.808 80.0027 100.765 80.056C100.797 80.088 100.85 80.104 100.925 80.104C101.362 80.104 101.709 79.576 101.965 78.52C102.232 77.4533 102.418 75.976 102.525 74.088L101.005 74.216V73H108.861V74.04C108.413 74.04 108.141 74.1733 108.045 74.44C107.949 74.696 107.901 75.0373 107.901 75.464V78.424C107.901 78.5733 107.896 78.7867 107.885 79.064C107.874 79.3307 107.858 79.5867 107.837 79.832L108.877 79.784V81H104.669V79.96C105.117 79.96 105.389 79.832 105.485 79.576C105.581 79.3093 105.629 78.9627 105.629 78.536V75.576C105.629 75.4267 105.634 75.2293 105.645 74.984C105.656 74.728 105.672 74.488 105.693 74.264H104.493C104.237 74.264 104.056 74.3067 103.949 74.392C103.842 74.4773 103.778 74.6533 103.757 74.92C103.629 77.0533 103.298 78.6373 102.765 79.672C102.242 80.7067 101.512 81.224 100.573 81.224ZM113.979 81.256C113.201 81.256 112.513 81.0853 111.915 80.744C111.318 80.392 110.854 79.9013 110.523 79.272C110.193 78.632 110.027 77.88 110.027 77.016C110.027 76.2693 110.193 75.5707 110.523 74.92C110.854 74.2693 111.318 73.7467 111.915 73.352C112.523 72.9467 113.227 72.744 114.027 72.744C114.475 72.744 114.913 72.808 115.339 72.936C115.766 73.0533 116.15 73.2613 116.491 73.56C116.843 73.8587 117.121 74.264 117.323 74.776C117.537 75.288 117.638 75.928 117.627 76.696L112.379 76.792C112.379 77.368 112.449 77.8853 112.587 78.344C112.737 78.8027 112.977 79.1653 113.307 79.432C113.638 79.6987 114.081 79.832 114.635 79.832C114.955 79.832 115.334 79.7467 115.771 79.576C116.219 79.3947 116.625 79.08 116.987 78.632L117.707 79.304C117.323 79.848 116.913 80.264 116.475 80.552C116.038 80.8293 115.601 81.016 115.163 81.112C114.737 81.208 114.342 81.256 113.979 81.256ZM112.475 75.672H115.419C115.409 75.0107 115.281 74.5467 115.035 74.28C114.79 74.0027 114.481 73.864 114.107 73.864C113.638 73.864 113.27 74.0347 113.003 74.376C112.737 74.7067 112.561 75.1387 112.475 75.672ZM122.589 81.256C121.81 81.256 121.122 81.0853 120.525 80.744C119.927 80.392 119.463 79.9013 119.133 79.272C118.802 78.632 118.637 77.88 118.637 77.016C118.637 76.2693 118.802 75.5707 119.133 74.92C119.463 74.2693 119.927 73.7467 120.525 73.352C121.133 72.9467 121.837 72.744 122.637 72.744C123.085 72.744 123.522 72.808 123.949 72.936C124.375 73.0533 124.759 73.2613 125.101 73.56C125.453 73.8587 125.73 74.264 125.933 74.776C126.146 75.288 126.247 75.928 126.237 76.696L120.989 76.792C120.989 77.368 121.058 77.8853 121.197 78.344C121.346 78.8027 121.586 79.1653 121.917 79.432C122.247 79.6987 122.69 79.832 123.245 79.832C123.565 79.832 123.943 79.7467 124.381 79.576C124.829 79.3947 125.234 79.08 125.597 78.632L126.317 79.304C125.933 79.848 125.522 80.264 125.085 80.552C124.647 80.8293 124.21 81.016 123.773 81.112C123.346 81.208 122.951 81.256 122.589 81.256ZM121.085 75.672H124.029C124.018 75.0107 123.89 74.5467 123.645 74.28C123.399 74.0027 123.09 73.864 122.717 73.864C122.247 73.864 121.879 74.0347 121.613 74.376C121.346 74.7067 121.17 75.1387 121.085 75.672Z" fill="white"/>
<rect x="46" y="1" width="30" height="48" rx="15" stroke="white" stroke-width="2"/>
<rect x="60" y="32" width="2" height="9" rx="1" fill="white"/>
</svg>
