<svg width="72" height="72" viewBox="0 0 72 72" fill="none" xmlns="http://www.w3.org/2000/svg">
<rect width="72" height="72" rx="36" fill="#F4512D"/>
<path d="M36 22C33.4423 22 31.2308 23.2678 29.6538 25.1023C28.9279 24.8438 28.2115 24.5455 27.3846 24.5455C23.3221 24.5455 20 27.9808 20 32.1818C20 35.9354 22.6923 38.9531 26.1538 39.5795V50H45.8462V39.5795C49.3077 38.9531 52 35.9354 52 32.1818C52 27.9808 48.6779 24.5455 44.6154 24.5455C43.7885 24.5455 43.0721 24.8438 42.3462 25.1023C40.7692 23.2678 38.5577 22 36 22ZM36 24.5455C38.0625 24.5455 39.8798 25.6044 41 27.2102L41.5769 28.0455L42.5 27.608C43.1587 27.2848 43.8702 27.0909 44.6154 27.0909C47.3462 27.0909 49.5385 29.358 49.5385 32.1818C49.5385 35.0057 47.3462 37.2727 44.6154 37.2727C43.1202 37.2727 41.7885 36.6016 40.8846 35.5227L39.0385 37.1932C40.1346 38.5007 41.6683 39.4006 43.3846 39.6989V47.4545H28.6154V39.6989C29.3942 39.5646 30.1298 39.3161 30.8077 38.9432L29.6923 36.6761C29.0096 37.049 28.2163 37.2727 27.3846 37.2727C24.6538 37.2727 22.4615 35.0057 22.4615 32.1818C22.4615 29.358 24.6538 27.0909 27.3846 27.0909C28.1298 27.0909 28.8413 27.2848 29.5 27.608L30.4231 28.0455L31 27.2102C32.1202 25.6044 33.9375 24.5455 36 24.5455Z" fill="white"/>
</svg>
