<svg width="72" height="72" viewBox="0 0 72 72" fill="none" xmlns="http://www.w3.org/2000/svg">
<rect width="72" height="72" rx="36" fill="#F4512D"/>
<path d="M32.3337 24C31.2121 24 30.2411 24.7269 29.7891 25.7152L29.6217 26.0909H24.2143C22.4481 26.0909 21 27.5039 21 29.2273V43.8636C21 45.587 22.4481 47 24.2143 47H47.7857C49.5519 47 51 45.587 51 43.8636V29.2273C51 27.5039 49.5519 26.0909 47.7857 26.0909H42.3867L42.2109 25.7152C41.7506 24.7269 40.7879 24 39.6663 24H32.3337ZM32.3337 26.0909H39.6663C39.8504 26.0909 40.0848 26.2134 40.2522 26.5728L40.9972 28.1818H47.7857C48.3884 28.1818 48.8571 28.6392 48.8571 29.2273V43.8636C48.8571 44.4517 48.3884 44.9091 47.7857 44.9091H24.2143C23.6116 44.9091 23.1429 44.4517 23.1429 43.8636V29.2273C23.1429 28.6392 23.6116 28.1818 24.2143 28.1818H31.0028L31.7478 26.5728C31.9068 26.2134 32.1496 26.0909 32.3337 26.0909ZM25.2857 30.2727V32.3636H27.4286V30.2727H25.2857ZM36 30.2727C32.4593 30.2727 29.5714 33.0906 29.5714 36.5455C29.5714 40.0004 32.4593 42.8182 36 42.8182C39.5407 42.8182 42.4286 40.0004 42.4286 36.5455C42.4286 33.0906 39.5407 30.2727 36 30.2727ZM36 32.3636C38.3772 32.3636 40.2857 34.2259 40.2857 36.5455C40.2857 38.8651 38.3772 40.7273 36 40.7273C33.6228 40.7273 31.7143 38.8651 31.7143 36.5455C31.7143 34.2259 33.6228 32.3636 36 32.3636Z" fill="white"/>
</svg>
