<svg width="72" height="72" viewBox="0 0 72 72" fill="none" xmlns="http://www.w3.org/2000/svg">
<rect width="72" height="72" rx="36" fill="#F4512D"/>
<g clip-path="url(#clip0_83_3)">
<path d="M35.0537 49.1384H36.9306V51.0153H35.0537V49.1384Z" fill="white"/>
<path d="M29.4231 20.9847H31.3V22.8616H29.4231V20.9847Z" fill="white"/>
<path d="M40.6846 22.8616H42.5615V24.7385H40.6846V22.8616Z" fill="white"/>
<path d="M35.9922 26.6154C30.7948 26.6154 25.0827 25.4236 20.7251 23.6418L20 25.373C22.485 26.3942 24.9528 27.0968 27.5461 27.6194V30.919L23.397 35.0681C24.1189 35.7756 24.1206 35.7841 24.3544 35.9877L21.422 38.92C22.2351 39.5229 22.6438 39.8731 23.6922 40.4037L21.4223 42.6735C22.8634 43.7356 24.6942 45.0358 27.5461 45.3348V49.1384H29.423V45.3348C31.9858 45.0661 33.7489 43.9986 35.5467 42.6735L33.2768 40.4037C34.3627 39.8542 34.819 39.4599 35.547 38.92L32.6147 35.9877C32.8525 35.7806 32.8678 35.7583 33.572 35.0681L29.423 30.919V27.9578C31.4139 28.2742 33.6395 28.4923 35.9922 28.4923C38.3449 28.4923 40.5704 28.2742 42.5614 27.9578V30.919L38.4123 35.0681C39.1342 35.7756 39.1359 35.7841 39.3697 35.9877L36.4373 38.92C37.2504 39.5229 37.6591 39.8731 38.7075 40.4037L36.4376 42.6735C37.8787 43.7356 39.7095 45.0358 42.5614 45.3348V49.1384H44.4383V45.3348C47.0011 45.0661 48.7642 43.9986 50.562 42.6735L48.2922 40.4037C49.378 39.8542 49.8342 39.4599 50.5623 38.92L47.63 35.9877C47.8678 35.7806 47.8831 35.7583 48.5873 35.0681L44.4383 30.919V27.6194C47.0311 27.0968 49.4938 26.3964 52 25.3665L51.2749 23.6353C46.8752 25.4343 41.1667 26.6154 35.9922 26.6154ZM32.6085 38.6358C31.6248 39.1574 30.9671 39.3228 29.9401 39.7212L32.6078 42.3889C31.6801 42.8797 30.1651 43.5076 28.4845 43.5076C26.8036 43.5076 25.2885 42.8796 24.3612 42.3889L27.029 39.7212C26.001 39.3224 25.3443 39.1574 24.3605 38.6358L27.2231 35.7732C26.3037 35.1307 26.278 35.1168 26.1197 34.9997L28.4845 32.6349L30.8494 34.9997C30.6903 35.1173 30.6589 35.1352 29.7459 35.7732L32.6085 38.6358ZM47.6238 38.6358C46.6401 39.1574 45.9824 39.3228 44.9554 39.7212L47.6231 42.3889C46.6954 42.8797 45.1804 43.5076 43.4998 43.5076C41.8189 43.5076 40.3038 42.8796 39.3765 42.3889L42.0443 39.7212C41.0163 39.3224 40.3596 39.1574 39.3758 38.6358L42.2384 35.7732C41.319 35.1307 41.2933 35.1168 41.135 34.9997L43.4998 32.6349L45.8647 34.9997C45.7056 35.1173 45.6742 35.1352 44.7612 35.7732L47.6238 38.6358Z" fill="white"/>
</g>
<defs>
<clipPath id="clip0_83_3">
<rect width="32" height="32" fill="white" transform="translate(20 20)"/>
</clipPath>
</defs>
</svg>
