<svg width="72" height="72" viewBox="0 0 72 72" fill="none" xmlns="http://www.w3.org/2000/svg">
<rect width="72" height="72" rx="36" fill="#F4512D"/>
<path d="M29.61 22.0005C29.3182 22.0091 29.0411 22.1319 28.8374 22.343L24.3876 26.8334L22.9346 25.3671C22.8311 25.2583 22.707 25.1714 22.5698 25.1115C22.4325 25.0517 22.2848 25.0201 22.1353 25.0185C21.9858 25.017 21.8375 25.0456 21.6991 25.1026C21.5607 25.1596 21.4349 25.244 21.3292 25.3507C21.2235 25.4573 21.1399 25.5842 21.0834 25.7239C21.0269 25.8636 20.9985 26.0133 21.0001 26.1641C21.0016 26.315 21.0329 26.4641 21.0922 26.6026C21.1515 26.7411 21.2377 26.8662 21.3455 26.9707L23.5931 29.2388C23.8038 29.4514 24.0896 29.5708 24.3876 29.5708C24.6856 29.5708 24.9714 29.4514 25.1822 29.2388L30.4265 23.9466C30.5887 23.7873 30.6994 23.5823 30.7441 23.3584C30.7889 23.1346 30.7656 22.9023 30.6774 22.692C30.5891 22.4817 30.44 22.3032 30.2496 22.1798C30.0592 22.0564 29.8363 21.9939 29.61 22.0005ZM34.1272 25.0349C33.9782 25.0328 33.8304 25.0605 33.6922 25.1166C33.554 25.1726 33.4282 25.2558 33.3222 25.3613C33.2161 25.4668 33.1319 25.5926 33.0744 25.7312C33.017 25.8698 32.9874 26.0186 32.9874 26.1689C32.9874 26.3192 33.017 26.468 33.0744 26.6066C33.1319 26.7453 33.2161 26.871 33.3222 26.9765C33.4282 27.082 33.554 27.1652 33.6922 27.2213C33.8304 27.2773 33.9782 27.3051 34.1272 27.303H49.8602C50.0091 27.3051 50.157 27.2773 50.2952 27.2213C50.4334 27.1652 50.5591 27.082 50.6652 26.9765C50.7712 26.871 50.8554 26.7453 50.9129 26.6066C50.9704 26.468 51 26.3192 51 26.1689C51 26.0186 50.9704 25.8698 50.9129 25.7312C50.8554 25.5926 50.7712 25.4668 50.6652 25.3613C50.5591 25.2558 50.4334 25.1726 50.2952 25.1166C50.157 25.0605 50.0091 25.0328 49.8602 25.0349H34.1272ZM29.61 32.2068C29.3182 32.2153 29.0411 32.3382 28.8374 32.5493L24.3876 37.0397L22.9346 35.5734C22.8311 35.4646 22.707 35.3777 22.5698 35.3178C22.4325 35.258 22.2848 35.2263 22.1353 35.2248C21.9858 35.2233 21.8375 35.2519 21.6991 35.3089C21.5607 35.3659 21.4349 35.4502 21.3292 35.5569C21.2235 35.6636 21.1399 35.7905 21.0834 35.9302C21.0269 36.0699 20.9985 36.2196 21.0001 36.3704C21.0016 36.5213 21.0329 36.6703 21.0922 36.8088C21.1515 36.9473 21.2377 37.0725 21.3455 37.177L23.5931 39.4451C23.8038 39.6577 24.0896 39.7771 24.3876 39.7771C24.6856 39.7771 24.9714 39.6577 25.1822 39.4451L30.4265 34.1529C30.5887 33.9936 30.6994 33.7886 30.7441 33.5647C30.7889 33.3408 30.7656 33.1086 30.6774 32.8983C30.5891 32.688 30.44 32.5094 30.2496 32.3861C30.0592 32.2627 29.8363 32.2002 29.61 32.2068ZM34.1272 35.2412C33.9782 35.239 33.8304 35.2668 33.6922 35.3228C33.554 35.3789 33.4282 35.4621 33.3222 35.5676C33.2161 35.6731 33.1319 35.7988 33.0744 35.9375C33.017 36.0761 32.9874 36.2249 32.9874 36.3752C32.9874 36.5255 33.017 36.6743 33.0744 36.8129C33.1319 36.9516 33.2161 37.0773 33.3222 37.1828C33.4282 37.2883 33.554 37.3715 33.6922 37.4276C33.8304 37.4836 33.9782 37.5114 34.1272 37.5092H49.8602C50.0091 37.5114 50.157 37.4836 50.2952 37.4276C50.4334 37.3715 50.5591 37.2883 50.6652 37.1828C50.7712 37.0773 50.8554 36.9516 50.9129 36.8129C50.9704 36.6743 51 36.5255 51 36.3752C51 36.2249 50.9704 36.0761 50.9129 35.9375C50.8554 35.7988 50.7712 35.6731 50.6652 35.5676C50.5591 35.4621 50.4334 35.3789 50.2952 35.3228C50.157 35.2668 50.0091 35.239 49.8602 35.2412H34.1272ZM28.1234 42.4071C27.8266 42.4142 27.5446 42.5395 27.3391 42.7556L25.5114 44.5999L23.6838 42.7556C23.5791 42.6468 23.4537 42.5602 23.3152 42.5011C23.1767 42.442 23.0279 42.4116 22.8775 42.4116C22.6539 42.4116 22.4353 42.479 22.2499 42.6051C22.0644 42.7312 21.9204 42.9103 21.8363 43.1194C21.7523 43.3286 21.732 43.5582 21.778 43.7791C21.824 44 21.9343 44.2019 22.0947 44.3592L23.9223 46.2035L22.0947 48.0478C21.9868 48.1523 21.9007 48.2774 21.8414 48.4159C21.7821 48.5544 21.7508 48.7035 21.7493 48.8543C21.7477 49.0052 21.7761 49.1549 21.8326 49.2945C21.8891 49.4342 21.9727 49.5611 22.0784 49.6678C22.1841 49.7745 22.3099 49.8588 22.4483 49.9159C22.5867 49.9729 22.735 50.0015 22.8845 49.9999C23.034 49.9984 23.1817 49.9668 23.319 49.9069C23.4562 49.8471 23.5803 49.7602 23.6838 49.6513L25.5114 47.8071L27.3391 49.6513C27.4426 49.7602 27.5666 49.8471 27.7039 49.9069C27.8411 49.9668 27.9888 49.9984 28.1383 49.9999C28.2878 50.0015 28.4362 49.9729 28.5746 49.9159C28.713 49.8588 28.8388 49.7745 28.9445 49.6678C29.0502 49.5611 29.1338 49.4342 29.1903 49.2945C29.2468 49.1549 29.2751 49.0052 29.2736 48.8543C29.2721 48.7035 29.2408 48.5544 29.1814 48.4159C29.1221 48.2774 29.036 48.1523 28.9282 48.0478L27.1005 46.2035L28.9282 44.3592C29.0916 44.2009 29.2038 43.9965 29.2501 43.7728C29.2964 43.549 29.2746 43.3164 29.1876 43.1053C29.1006 42.8943 28.9524 42.7147 28.7625 42.5901C28.5726 42.4655 28.3498 42.4017 28.1234 42.4071ZM34.1272 45.4475C33.9782 45.4453 33.8304 45.4731 33.6922 45.5291C33.554 45.5852 33.4282 45.6684 33.3222 45.7739C33.2161 45.8794 33.1319 46.0051 33.0744 46.1438C33.017 46.2824 32.9874 46.4312 32.9874 46.5815C32.9874 46.7318 33.017 46.8806 33.0744 47.0192C33.1319 47.1579 33.2161 47.2836 33.3222 47.3891C33.4282 47.4946 33.554 47.5778 33.6922 47.6338C33.8304 47.6899 33.9782 47.7176 34.1272 47.7155H49.8602C50.0091 47.7176 50.157 47.6899 50.2952 47.6338C50.4334 47.5778 50.5591 47.4946 50.6652 47.3891C50.7712 47.2836 50.8554 47.1579 50.9129 47.0192C50.9704 46.8806 51 46.7318 51 46.5815C51 46.4312 50.9704 46.2824 50.9129 46.1438C50.8554 46.0051 50.7712 45.8794 50.6652 45.7739C50.5591 45.6684 50.4334 45.5852 50.2952 45.5291C50.157 45.4731 50.0091 45.4453 49.8602 45.4475H34.1272Z" fill="white"/>
</svg>
