<svg width="72" height="72" viewBox="0 0 72 72" fill="none" xmlns="http://www.w3.org/2000/svg">
<rect width="72" height="72" rx="36" fill="#F4512D"/>
<path d="M41.3334 24.3333C39.679 24.3333 38.2243 24.986 36.9949 25.9166C36.804 25.7487 36.5564 25.6598 36.3024 25.668C36.0483 25.6761 35.8069 25.7806 35.6272 25.9604C35.4475 26.1401 35.3429 26.3815 35.3348 26.6355C35.3267 26.8896 35.4155 27.1372 35.5834 27.328C34.6528 28.5575 34.0001 30.0122 34.0001 31.6666C34.0001 32.2703 34.0729 32.8585 34.211 33.4218L23.5873 45.3346C23.4175 45.5251 23.3269 45.7734 23.3341 46.0285C23.3414 46.2837 23.446 46.5264 23.6264 46.707L26.293 49.3736C26.4736 49.554 26.7163 49.6586 26.9715 49.6659C27.2266 49.6731 27.4749 49.5825 27.6654 49.4127L39.5769 38.789C40.1408 38.9276 40.7302 38.9999 41.3334 38.9999C42.9878 38.9999 44.4425 38.3471 45.6719 37.4166C45.8628 37.5844 46.1104 37.6733 46.3644 37.6652C46.6185 37.6571 46.8599 37.5525 47.0396 37.3728C47.2193 37.1931 47.3239 36.9517 47.332 36.6976C47.3402 36.4436 47.2513 36.196 47.0834 36.0051C48.014 34.7757 48.6667 33.321 48.6667 31.6666C48.6667 27.6282 45.3718 24.3333 41.3334 24.3333ZM41.3334 26.3333C44.291 26.3333 46.6667 28.709 46.6667 31.6666C46.6667 32.7765 46.2515 33.7451 45.6772 34.5963L38.4037 27.3228C39.2549 26.7485 40.2235 26.3333 41.3334 26.3333ZM36.9897 28.7369L44.2631 36.0103C43.4119 36.5847 42.4433 36.9999 41.3334 36.9999C40.825 36.9999 40.3377 36.9257 39.8751 36.7942L36.2058 33.1249C36.0745 32.6616 36.0001 32.1742 36.0001 31.6666C36.0001 30.5567 36.4153 29.5881 36.9897 28.7369ZM35.3751 35.1223L37.8777 37.6249L36.5535 38.8059L34.1941 36.4465L35.3751 35.1223ZM32.8608 37.9413L35.0587 40.1392L27.0391 47.2916L25.7084 45.9609L32.8608 37.9413Z" fill="white"/>
</svg>
