<svg width="72" height="72" viewBox="0 0 72 72" fill="none" xmlns="http://www.w3.org/2000/svg">
<rect width="72" height="72" rx="36" fill="#F4512D"/>
<g clip-path="url(#clip0_83_6)">
<path d="M26.625 56C29.8559 56 32.4844 53.3716 32.4844 50.1407V32.0465L48.8906 25.8941V38.4253C47.9107 37.6877 46.6931 37.25 45.375 37.25C42.1441 37.25 39.5156 39.8785 39.5156 43.1094C39.5156 46.3403 42.1441 48.9688 45.375 48.9688C48.6059 48.9688 51.2344 46.3403 51.2344 43.1094V17.1719C51.2344 16.7877 51.0461 16.4276 50.7299 16.2088C50.4141 15.9897 50.0109 15.9396 49.6511 16.0748L30.9011 23.1061C30.4437 23.2776 30.1406 23.7146 30.1406 24.2032V45.4565C29.1607 44.7189 27.9431 44.2813 26.625 44.2813C23.3941 44.2813 20.7656 46.9098 20.7656 50.1407C20.7656 53.3716 23.3941 56 26.625 56ZM45.375 46.625C43.4365 46.625 41.8594 45.0479 41.8594 43.1094C41.8594 41.1709 43.4365 39.5938 45.375 39.5938C47.3135 39.5938 48.8906 41.1709 48.8906 43.1094C48.8906 45.0479 47.3135 46.625 45.375 46.625ZM32.4844 25.0152L48.8906 18.8629V23.3911L32.4844 29.5434V25.0152ZM26.625 46.625C28.5635 46.625 30.1406 48.2022 30.1406 50.1407C30.1406 52.0791 28.5635 53.6563 26.625 53.6563C24.6865 53.6563 23.1094 52.0791 23.1094 50.1407C23.1094 48.2022 24.6865 46.625 26.625 46.625Z" fill="white"/>
</g>
<defs>
<clipPath id="clip0_83_6">
<rect width="40" height="40" fill="white" transform="translate(16 16)"/>
</clipPath>
</defs>
</svg>
